<?xml version="1.0" encoding="iso-8859-1"?>
<!-- Generator: Adobe Illustrator 19.0.0, SVG Export Plug-In . SVG Version: 6.00 Build 0)  -->
<svg version="1.1" id="Capa_1" xmlns="http://www.w3.org/2000/svg" xmlns:xlink="http://www.w3.org/1999/xlink" x="0px" y="0px"
	 viewBox="0 0 512 512" style="enable-background:new 0 0 512 512;" xml:space="preserve">
<g>
	<g>
		<path d="M234.827,63c0-34.738-28.262-63-63-63c-27.75,0-51.686,17.874-59.94,43.596c-24.036,0.279-46.061,14.115-56.993,35.255
			C24.486,79.695,0.006,104.82,0.006,135.583c0,5.523,4.477,10,10,10h60.5c5.522,0,10-4.477,10-10c0-5.523-4.478-10-10-10H21.377
			c4.332-15.422,18.425-26.754,35.095-26.754c1.204,0,2.477,0.067,3.784,0.199c4.504,0.458,8.742-2.168,10.35-6.395
			c6.609-17.376,23.496-29.05,42.021-29.05c18.525,0,35.413,11.674,42.021,29.05c1.606,4.227,5.857,6.845,10.351,6.395
			c1.306-0.132,2.578-0.199,3.78-0.199c16.672,0,30.766,11.332,35.098,26.754h-47.87c-5.522,0-10,4.477-10,10
			c0,5.523,4.478,10,10,10h59.242c5.522,0,10-4.477,10-10c0-10.591-2.902-20.512-7.948-29.006
			C228.524,94.925,234.827,79.504,234.827,63z M204.124,91.371c-9.301-7.526-21.006-12.166-33.766-12.52
			c-8.005-15.482-21.963-27.046-38.302-32.239C138.539,30.76,154.034,20,171.827,20c23.71,0,43,19.29,43,43
			C214.827,73.626,210.993,83.596,204.124,91.371z"/>
	</g>
</g>
<g>
	<g>
		<path d="M115.014,125.583h-0.01c-5.522,0-9.995,4.477-9.995,10s4.482,10,10.005,10c5.523,0,10-4.477,10-10
			S120.537,125.583,115.014,125.583z"/>
	</g>
</g>
<g>
	<g>
		<path d="M511.077,497.817L386.601,227.542c-2.311-5.017-8.25-7.208-13.267-4.9c-5.016,2.311-7.21,8.25-4.899,13.266l31.666,68.757
			l-39.323-39.701c-2.291-2.313-5.559-3.367-8.774-2.823c-3.21,0.544-5.954,2.616-7.355,5.554l-29.283,61.386l-30.722-62.344
			c-1.257-2.552-3.543-4.448-6.283-5.212c-2.741-0.764-5.678-0.325-8.074,1.208l-28.427,18.179l73.651-159.919l18.684,40.567
			c2.311,5.017,8.249,7.209,13.267,4.9c5.016-2.311,7.21-8.25,4.899-13.266l-27.767-60.289c-1.633-3.546-5.18-5.817-9.083-5.817
			s-7.45,2.271-9.083,5.817L204.303,314.646l-43.976-82.356c-1.739-3.256-5.13-5.29-8.821-5.29c-3.691,0-7.083,2.034-8.821,5.29
			L55.254,396.03c-0.054,0.098-0.107,0.195-0.157,0.295L1.185,497.29c-1.655,3.099-1.562,6.839,0.245,9.853
			C3.236,510.156,6.492,512,10.006,512h491.988c3.409,0,6.583-1.736,8.421-4.607C512.254,504.522,512.503,500.913,511.077,497.817z
			 M151.506,258.23l42.297,79.213l-14.72,31.961l-7.458-8.778c-1.971-2.32-4.911-3.616-7.933-3.521
			c-3.042,0.095-5.875,1.57-7.697,4.007l-20.413,27.305l-14.438-24.944c-1.385-2.392-3.697-4.104-6.388-4.73
			c-2.692-0.625-5.523-0.111-7.82,1.423L91.612,370.4L151.506,258.23z M26.682,492l44.975-84.228l37.52-25.052l16.687,28.832
			c1.684,2.908,4.715,4.776,8.069,4.974c0.196,0.011,0.392,0.017,0.587,0.017c3.141,0,6.114-1.479,8.008-4.012l21.977-29.396
			l5.354,6.302L122.622,492H26.682z M144.641,492l81.72-177.438l45.283-28.959l34.896,70.817c1.684,3.418,5.163,5.58,8.97,5.58
			c0.021,0,0.042,0,0.063,0c3.832-0.024,7.313-2.236,8.962-5.694l32.04-67.165l67.99,68.642L486.379,492H144.641z"/>
	</g>
</g>
<g>
	<g>
		<path d="M368.595,189.92c-1.87-1.86-4.44-2.93-7.07-2.93c-2.64,0-5.22,1.07-7.08,2.93c-1.859,1.86-2.92,4.44-2.92,7.07
			s1.061,5.21,2.92,7.07c1.87,1.86,4.44,2.93,7.08,2.93c2.62,0,5.2-1.07,7.07-2.93c1.86-1.86,2.92-4.44,2.92-7.07
			S370.455,191.78,368.595,189.92z"/>
	</g>
</g>
<g>
</g>
<g>
</g>
<g>
</g>
<g>
</g>
<g>
</g>
<g>
</g>
<g>
</g>
<g>
</g>
<g>
</g>
<g>
</g>
<g>
</g>
<g>
</g>
<g>
</g>
<g>
</g>
<g>
</g>
</svg>
