<?xml version="1.0" encoding="iso-8859-1"?>
<!-- Generator: Adobe Illustrator 19.0.0, SVG Export Plug-In . SVG Version: 6.00 Build 0)  -->
<svg version="1.1" id="Capa_1" xmlns="http://www.w3.org/2000/svg" xmlns:xlink="http://www.w3.org/1999/xlink" x="0px" y="0px"
	 viewBox="0 0 388.104 388.104" style="enable-background:new 0 0 388.104 388.104;" xml:space="preserve" fill="green">
<g>
	<g>
		<path d="M363.652,159.652c-12.8-8-26.4-10.4-31.2-11.2l-24-2.4l-68.8-105.6c-1.6-17.6-16-31.2-34.4-31.2
			c-17.6,0-32,13.6-34.4,31.2l-68.8,83.2l-22.4-2.4c-28.8-3.2-64,9.6-68.8,55.2l-10.4,105.6c-3.2,32,11.2,49.6,24,57.6
			c12.8,8,26.4,10.4,31.2,11.2l252,27.2c2.4,0,5.6,0.8,8,0.8c26.4,0,56-14.4,60.8-56l11.2-105.6
			C390.852,185.252,376.452,168.452,363.652,159.652z M205.252,25.252c10.4,0,18.4,8,18.4,18.4c0,10.4-8,18.4-18.4,18.4
			c-10.4,0-18.4-8-18.4-18.4C186.852,33.252,195.652,25.252,205.252,25.252z M175.652,60.452c5.6,10.4,16.8,17.6,29.6,17.6
			c12,0,22.4-6.4,28.8-16l53.6,81.6l-165.6-17.6L175.652,60.452z M371.652,214.852l-11.2,105.6c-4.8,42.4-40,42.4-51.2,40.8
			l-252-27.2c-4-0.8-14.4-2.4-24-8.8c-13.6-7.2-19.2-21.6-16.8-40.8l11.2-106.4c4-36,30.4-41.6,44.8-41.6c2.4,0,4.8,0,6.4,0
			l252,27.2c4,0.8,14.4,2.4,24,8.8C367.652,181.252,373.252,195.652,371.652,214.852z"/>
	</g>
</g>
<g>
	<g>
		<path d="M97.252,202.052c-1.6-1.6-2.4-2.4-4.8-2.4s-4,0-4.8,1.6c-1.6,1.6-2.4,3.2-2.4,6.4l-2.4,19.2l-29.6-3.2l2.4-19.2
			c0-3.2,0-4.8-1.6-6.4c-1.6-1.6-2.4-2.4-4.8-2.4c-2.4,0-4,0-5.6,1.6c-1.6,1.6-2.4,3.2-2.4,6.4l-5.6,53.6c0,2.4,0,4.8,0.8,6.4
			c2.4,1.6,4,2.4,5.6,2.4c2.4,0,4,0,5.6-1.6c1.6-1.6,2.4-3.2,2.4-6.4l2.4-23.2l29.6,3.2l-2.4,23.2c0,2.4,0,4.8,0.8,6.4
			c0.8,1.6,2.4,2.4,4.8,2.4s4,0,5.6-1.6c1.6-1.6,2.4-3.2,2.4-6.4l5.6-53.6C98.852,205.252,98.852,203.652,97.252,202.052z"/>
	</g>
</g>
<g>
	<g>
		<path d="M174.052,226.052c-2.4-5.6-5.6-10.4-10.4-13.6s-10.4-5.6-17.6-6.4c-5.6-0.8-9.6,0-14.4,0.8c-4,0.8-8,3.2-11.2,5.6
			c-3.2,2.4-5.6,6.4-8,10.4c-2.4,4-3.2,8.8-4,14.4c-0.8,4.8,0,9.6,0.8,14.4c0.8,4.8,2.4,8.8,4.8,12.8c2.4,3.2,5.6,6.4,9.6,8.8
			c4,2.4,8.8,3.2,14.4,4c5.6,0.8,10.4,0,14.4-0.8c4-1.6,8-3.2,11.2-6.4c3.2-3.2,5.6-6.4,8-10.4c2.4-4,3.2-8.8,4-14.4
			C176.452,238.052,175.652,231.652,174.052,226.052z M162.052,242.852c-0.8,5.6-1.6,9.6-4,13.6c-2.4,3.2-4.8,5.6-8,7.2
			c-3.2,1.6-6.4,1.6-10.4,1.6c-2.4,0-5.6-0.8-7.2-2.4c-2.4-1.6-4-3.2-5.6-5.6c-1.6-2.4-2.4-4.8-3.2-8c-1.6-2.4-1.6-6.4-0.8-10.4
			c0.8-4,1.6-7.2,2.4-10.4c1.6-3.2,3.2-5.6,4.8-7.2c1.6-1.6,4-3.2,6.4-4c2.4-0.8,4.8-0.8,8-0.8c4,0.8,7.2,1.6,10.4,4
			c2.4,2.4,4.8,5.6,6.4,8.8C162.852,233.252,162.852,237.252,162.052,242.852z"/>
	</g>
</g>
<g>
	<g>
		<path d="M237.252,218.052c-0.8-0.8-2.4-1.6-4.8-2.4l-44-4.8c-2.4,0-4,0-5.6,0.8c-1.6,0.8-2.4,2.4-2.4,4c0,1.6,0,3.2,1.6,4
			c0,2.4,1.6,3.2,4,3.2l15.2,1.6l-4.8,49.6c0,3.2,0,4.8,1.6,6.4c0.8,1.6,2.4,2.4,4.8,2.4c2.4,0,4,0,4.8-1.6c0.8-1.6,2.4-3.2,2.4-6.4
			l5.6-49.6l15.2,1.6c2.4,0,4,0,5.6-0.8c1.6-0.8,2.4-2.4,2.4-4C238.852,220.452,238.852,218.852,237.252,218.052z"/>
	</g>
</g>
<g>
	<g>
		<path d="M290.852,233.252c2.4,0,4,0,4.8-0.8s1.6-2.4,2.4-4c0-1.6,0-3.2-0.8-4s-2.4-1.6-4.8-1.6l-36.8-4c-1.6,0-4,0-4.8,0
			s-2.4,1.6-3.2,2.4c-0.8,0.8-0.8,2.4-1.6,4.8l-5.6,51.2c0,3.2,0,5.6,1.6,6.4c0.8,2.4,3.2,3.2,5.6,4l37.6,4c2.4,0,4,0,4.8-0.8
			c1.6-0.8,1.6-2.4,2.4-4c0-1.6,0-3.2-1.6-4c-0.8-0.8-2.4-1.6-4.8-2.4l-32-3.2l2.4-19.2l28.8,3.2c2.4,0,4,0,4.8-0.8s1.6-2.4,1.6-4
			c0-1.6,0-3.2-0.8-4s-2.4-1.6-4.8-1.6l-28-4l1.6-16.8L290.852,233.252z"/>
	</g>
</g>
<g>
	<g>
		<path d="M351.652,289.252c-0.8-1.6-2.4-1.6-4.8-2.4l-28-3.2l5.6-49.6c0-3.2,0-4.8-1.6-6.4c-1.6-1.6-2.4-2.4-4.8-2.4
			c-2.4,0-4,0-4.8,1.6c-1.6,1.6-2.4,3.2-2.4,6.4l-5.6,52.8c0,3.2,0,5.6,1.6,6.4c-0.8,0.8,1.6,1.6,4.8,1.6l33.6,4c2.4,0,4,0,5.6-0.8
			c1.6-0.8,2.4-2.4,2.4-4C353.252,291.652,353.252,290.052,351.652,289.252z"/>
	</g>
</g>
<g>
</g>
<g>
</g>
<g>
</g>
<g>
</g>
<g>
</g>
<g>
</g>
<g>
</g>
<g>
</g>
<g>
</g>
<g>
</g>
<g>
</g>
<g>
</g>
<g>
</g>
<g>
</g>
<g>
</g>
</svg>
